<svg width="32" height="32" viewBox="0 0 32 32" fill="none" xmlns="http://www.w3.org/2000/svg">
<g id="instagram.svg" clip-path="url(#clip0_2_598)">
<g id="Group">
<path id="Vector" d="M20.08 9.50998C18.7 9.29998 13.53 9.31998 12.09 9.47998C10.67 9.63998 9.73004 10.52 9.52004 11.92C9.29004 13.41 9.34004 18.99 9.52004 20.11C9.71004 21.28 10.38 22.08 11.54 22.4C12.75 22.74 18.6 22.66 19.91 22.52C21.34 22.36 22.28 21.49 22.49 20.07C22.71 18.64 22.67 13.43 22.52 12.1C22.37 10.67 21.49 9.72998 20.08 9.50998ZM16 20.16C13.7 20.16 11.84 18.29 11.84 16C11.84 13.7 13.71 11.84 16 11.84C18.3 11.84 20.16 13.71 20.16 16C20.16 18.3 18.3 20.16 16 20.16ZM20.32 12.65C19.78 12.65 19.35 12.21 19.35 11.67C19.35 11.13 19.79 10.7 20.33 10.7C20.87 10.7 21.3 11.14 21.3 11.68C21.3 12.22 20.86 12.66 20.32 12.65Z" fill="white"/>
<path id="Vector_2" d="M16.0201 13.3101C14.5301 13.3001 13.3201 14.4901 13.3001 15.9801C13.2901 17.4701 14.4801 18.6801 15.9701 18.7001C17.4601 18.7101 18.6701 17.5201 18.6901 16.0301C18.7001 14.5401 17.5101 13.3201 16.0201 13.3101Z" fill="white"/>
<path id="Vector_3" d="M24.28 0H7.72C3.46 0 0 3.46 0 7.72V24.27C0 28.54 3.46 32 7.72 32H24.27C28.54 32 31.99 28.54 31.99 24.28V7.72C32 3.46 28.54 0 24.28 0ZM23.87 20.69C23.38 22.54 22.18 23.63 20.31 23.94C18.9 24.17 12.61 24.21 11.33 23.88C9.48 23.4 8.38 22.21 8.07 20.34C7.84 18.97 7.77 12.61 8.15 11.23C8.65 9.43 9.84 8.37 11.66 8.08C13.25 7.82 17.78 7.89 19.69 7.99C20.81 8.05 21.83 8.4 22.67 9.2C23.46 9.96 23.87 10.9 23.98 11.97C24.11 13.24 24.24 19.27 23.87 20.69Z" fill="white"/>
</g>
</g>
<defs>
<clipPath id="clip0_2_598">
<rect width="32" height="32" fill="white"/>
</clipPath>
</defs>
</svg>
