<svg width="27" height="22" viewBox="0 0 27 22" fill="none" xmlns="http://www.w3.org/2000/svg">
<path d="M25.9933 9.09619C26.3214 9.09619 26.6495 9.42432 26.6495 9.75244V11.0649C26.6495 11.4341 26.3214 11.7212 25.9933 11.7212H23.3683V14.3462C23.3683 14.7153 23.0402 15.0024 22.712 15.0024H21.3995C21.0304 15.0024 20.7433 14.7153 20.7433 14.3462V11.7212H18.1183C17.7492 11.7212 17.462 11.4341 17.462 11.0649V9.75244C17.462 9.42432 17.7492 9.09619 18.1183 9.09619H20.7433V6.47119C20.7433 6.14307 21.0304 5.81494 21.3995 5.81494H22.712C23.0402 5.81494 23.3683 6.14307 23.3683 6.47119V9.09619H25.9933ZM9.58704 11.0649C6.67493 11.0649 4.33704 8.72705 4.33704 5.81494C4.33704 2.94385 6.67493 0.564941 9.58704 0.564941C12.4581 0.564941 14.837 2.94385 14.837 5.81494C14.837 8.72705 12.4581 11.0649 9.58704 11.0649ZM13.2374 12.3774C16.2726 12.3774 18.7745 14.8794 18.7745 17.9146V19.5962C18.7745 20.7036 17.8722 21.5649 16.8058 21.5649H2.36829C1.26087 21.5649 0.399543 20.7036 0.399543 19.5962V17.9146C0.399543 14.8794 2.86048 12.3774 5.89564 12.3774H6.5929C7.49525 12.8286 8.52064 13.0337 9.58704 13.0337C10.6534 13.0337 11.6378 12.8286 12.5402 12.3774H13.2374Z" fill="white"/>
</svg>
