<svg width="32" height="32" viewBox="0 0 32 32" fill="none" xmlns="http://www.w3.org/2000/svg">
<g id="whatsapp.svg" clip-path="url(#clip0_2_609)">
<g id="Group">
<path id="Vector" d="M14.7701 9.01997C10.0401 9.88997 7.53012 15.16 9.88012 19.33C10.1401 19.79 10.2101 20.17 10.0401 20.67C9.83012 21.26 9.70012 21.88 9.52012 22.55C10.3601 22.33 11.1301 22.14 11.9001 21.92C12.1201 21.86 12.2801 21.89 12.4701 22C13.9201 22.83 15.4701 23.15 17.1301 22.88C20.9501 22.27 23.5601 18.69 22.9801 14.89C22.3801 10.95 18.6801 8.30997 14.7701 9.01997ZM18.2201 19.97C16.5801 19.91 13.9601 18.61 12.1701 15.5C11.5301 14.39 11.6301 13.13 12.5601 12.27C12.8801 11.98 13.2701 12.05 13.6401 12.11C13.7301 12.12 13.8301 12.26 13.8701 12.37C14.1101 12.91 14.3401 13.46 14.5501 14.01C14.6601 14.3 14.4601 14.58 14.0301 15.07C13.8901 15.22 13.8701 15.37 13.9701 15.55C14.6601 16.72 15.6201 17.56 16.8901 18.06C17.0801 18.13 17.2201 18.09 17.3301 17.94C18.0001 17.12 18.0701 16.88 18.4201 17.05C20.1201 17.86 20.2501 17.9 20.2601 18.09C20.3301 19.51 19.0201 20.03 18.2201 19.97Z" fill="white"/>
<path id="Vector_2" d="M24.28 0H7.72C3.46 0 0 3.46 0 7.72V24.27C0 28.54 3.46 32 7.72 32H24.27C28.54 32 31.99 28.54 31.99 24.28V7.72C32 3.46 28.54 0 24.28 0ZM17.49 24.24C15.66 24.56 13.91 24.29 12.24 23.47C12.09 23.4 11.88 23.38 11.72 23.41C9.49 23.97 8.01 24.39 7.56 24.48C7.65 24.11 7.74 23.8 7.82 23.48C8.1 22.46 8.39 21.44 8.65 20.42C8.69 20.27 8.67 20.07 8.6 19.93C6.02 15 8.69 9.02 14.12 7.75C19.05 6.59 23.49 9.92 24.3 14.38C25.14 19.02 22.1 23.43 17.49 24.24Z" fill="white"/>
</g>
</g>
<defs>
<clipPath id="clip0_2_609">
<rect width="32" height="32" fill="white"/>
</clipPath>
</defs>
</svg>
