<svg width="32" height="32" viewBox="0 0 32 32" fill="none" xmlns="http://www.w3.org/2000/svg">
<g id="youtube.svg" clip-path="url(#clip0_2_619)">
<g id="Group">
<path id="Vector" d="M13.51 19.05C15.61 17.96 17.68 16.89 19.79 15.79C17.68 14.69 15.61 13.61 13.51 12.51C13.51 14.7 13.51 16.86 13.51 19.05Z" fill="white"/>
<path id="Vector_2" d="M24.28 0H7.72C3.46 0 0 3.46 0 7.72V24.27C0 28.54 3.46 32 7.72 32H24.27C28.54 32 31.99 28.54 31.99 24.28V7.72C32 3.46 28.54 0 24.28 0ZM25.46 21.46C25.23 21.96 24.85 22.31 24.37 22.56C23.07 23.24 9.69 23.23 7.98 22.67C7.22 22.42 6.7 21.92 6.43 21.16C5.76 19.31 5.56 11.59 6.85 10.06C7.29 9.54 7.86 9.24 8.54 9.16C12.02 8.78 22.8 8.84 24.04 9.29C24.77 9.55 25.28 10.03 25.56 10.76C26.29 12.67 26.32 19.62 25.46 21.46Z" fill="white"/>
</g>
</g>
<defs>
<clipPath id="clip0_2_619">
<rect width="32" height="32" fill="white"/>
</clipPath>
</defs>
</svg>
